<svg width="23" height="23" viewBox="0 0 23 23" fill="none" xmlns="http://www.w3.org/2000/svg">
<rect width="23" height="23" rx="11.5" fill="#1E477B"/>
<g clip-path="url(#clip0_168_1837)">
<path d="M17.5685 13.4321C17.5685 15.0344 16.2732 16.3324 14.6598 16.3381H14.654H8.92342C7.31584 16.3381 6.00317 15.0459 6.00317 13.4435V13.4378C6.00317 13.4378 6.00664 10.8958 6.01127 9.6174C6.01185 9.37733 6.28942 9.24294 6.47851 9.39226C7.85247 10.4749 10.3095 12.4488 10.3402 12.4747C10.7507 12.8014 11.2712 12.9858 11.8032 12.9858C12.3352 12.9858 12.8556 12.8014 13.2662 12.4684C13.2968 12.4482 15.699 10.5334 17.0937 9.43304C17.2834 9.28314 17.5621 9.41753 17.5627 9.65702C17.5685 10.9257 17.5685 13.4321 17.5685 13.4321Z" fill="white"/>
<path d="M17.2649 7.53574C16.7641 6.59844 15.7787 6 14.6939 6H8.92281C7.83798 6 6.85261 6.59844 6.35184 7.53574C6.23965 7.74537 6.29285 8.00669 6.47963 8.15486L10.7733 11.5658C11.074 11.807 11.4383 11.927 11.8026 11.927C11.8049 11.927 11.8066 11.927 11.8084 11.927C11.8101 11.927 11.8124 11.927 11.8141 11.927C12.1784 11.927 12.5428 11.807 12.8435 11.5658L17.1371 8.15486C17.3238 8.00669 17.3771 7.74537 17.2649 7.53574Z" fill="white"/>
</g>
<defs>
<clipPath id="clip0_168_1837">
<rect width="12" height="10.3636" fill="white" transform="translate(6.00317 6)"/>
</clipPath>
</defs>
</svg>
