<svg width="23" height="23" viewBox="0 0 23 23" fill="none" xmlns="http://www.w3.org/2000/svg">
<rect width="23" height="23" rx="11.5" fill="#1E477B"/>
<g clip-path="url(#clip0_168_1861)">
<path d="M11.5 5C9.01214 5 7 7.0345 7 9.55C7 12.9625 11.5 18 11.5 18C11.5 18 16 12.9625 16 9.55C16 7.0345 13.9879 5 11.5 5ZM8.28571 9.55C8.28571 7.756 9.72571 6.3 11.5 6.3C13.2743 6.3 14.7143 7.756 14.7143 9.55C14.7143 11.422 12.8629 14.2235 11.5 15.972C10.1629 14.2365 8.28571 11.4025 8.28571 9.55Z" fill="white"/>
<path d="M11.5 11C12.3284 11 13 10.3284 13 9.5C13 8.67157 12.3284 8 11.5 8C10.6716 8 10 8.67157 10 9.5C10 10.3284 10.6716 11 11.5 11Z" fill="white"/>
</g>
<defs>
<clipPath id="clip0_168_1861">
<rect width="22" height="19" fill="white" transform="translate(1 3)"/>
</clipPath>
</defs>
</svg>
