<svg width="13" height="8" viewBox="0 0 13 8" fill="none" xmlns="http://www.w3.org/2000/svg">
<path d="M2.4375 5.5H4.3875V4.75H2.7625V3.25H4.3875V2.5H2.4375C2.25333 2.5 2.09896 2.54792 1.97437 2.64375C1.84979 2.73958 1.7875 2.85833 1.7875 3V5C1.7875 5.14167 1.84979 5.26042 1.97437 5.35625C2.09896 5.45208 2.25333 5.5 2.4375 5.5ZM4.9725 5.5H6.9225C7.10667 5.5 7.26104 5.45208 7.38562 5.35625C7.51021 5.26042 7.5725 5.14167 7.5725 5V4.25C7.5725 4.10833 7.51021 3.97708 7.38562 3.85625C7.26104 3.73542 7.10667 3.675 6.9225 3.675H5.9475V3.25H7.5725V2.5H5.6225C5.43833 2.5 5.28396 2.54792 5.15937 2.64375C5.03479 2.73958 4.9725 2.85833 4.9725 3V3.75C4.9725 3.89167 5.03479 4.01875 5.15937 4.13125C5.28396 4.24375 5.43833 4.3 5.6225 4.3H6.5975V4.75H4.9725V5.5ZM9.2625 5.5H10.2375L11.375 2.5H10.4L9.75 4.225L9.1 2.5H8.125L9.2625 5.5ZM1.3 8C0.9425 8 0.636458 7.90208 0.381875 7.70625C0.127292 7.51042 0 7.275 0 7V1C0 0.725 0.127292 0.489583 0.381875 0.29375C0.636458 0.0979167 0.9425 0 1.3 0H11.7C12.0575 0 12.3635 0.0979167 12.6181 0.29375C12.8727 0.489583 13 0.725 13 1V7C13 7.275 12.8727 7.51042 12.6181 7.70625C12.3635 7.90208 12.0575 8 11.7 8H1.3ZM1.3 7H11.7V1H1.3V7Z" fill="white"/>
</svg>
