<svg width="20" height="20" viewBox="0 0 20 20" fill="none" xmlns="http://www.w3.org/2000/svg">
<path d="M12.4987 15.2018C12.6494 15.051 12.7418 14.8415 12.7415 14.6114L12.7415 14.5101C12.7415 14.0493 12.3685 13.6763 11.9083 13.6769L7.35533 13.6769L15.0571 5.9751C15.3824 5.64983 15.3824 5.12186 15.0571 4.79659C14.7318 4.47132 14.2038 4.47132 13.8786 4.79659L6.17682 12.4983V7.94542C6.17682 7.48462 5.80378 7.11159 5.34357 7.11218H5.2423C4.7815 7.11218 4.40846 7.48521 4.40905 7.94542V14.6114C4.40905 15.0722 4.78209 15.4452 5.2423 15.4446L11.9083 15.4446C12.1386 15.4446 12.3479 15.3526 12.4987 15.2018Z" fill="#FF3B30"/>
</svg>
