<svg width="46" height="47" viewBox="0 0 46 47" fill="none" xmlns="http://www.w3.org/2000/svg">
<path d="M23 0.238281C16.9 0.238281 11.0499 2.66155 6.73654 6.975C2.42321 11.2884 0 17.1387 0 23.2389C0.000157249 26.2594 0.595226 29.2502 1.75123 32.0407C2.90723 34.8312 4.60153 37.3667 6.73739 39.5024C8.87325 41.6381 11.4088 43.3322 14.1994 44.4879C16.9899 45.6437 19.9808 46.2384 23.0012 46.2383C26.0216 46.2381 29.0124 45.643 31.8028 44.487C34.5933 43.331 37.1287 41.6366 39.2643 39.5007C41.3999 37.3648 43.094 34.8291 44.2497 32.0385C45.4054 29.2479 46.0002 26.257 46 23.2365C46 10.5358 35.7003 0.238281 23 0.238281ZM22.6382 36.6535H22.516C20.6425 36.5984 19.32 35.216 19.3751 33.3687C19.4278 31.5526 20.7815 30.2325 22.5927 30.2325L22.7029 30.2373C24.6292 30.2924 25.9373 31.6604 25.8822 33.5604C25.8271 35.3813 24.4974 36.6535 22.6382 36.6535ZM30.5229 21.0059C30.0821 21.6288 29.1142 22.4099 27.8923 23.3611L26.5458 24.2883C25.8079 24.8633 25.3623 25.4072 25.197 25.9367C25.0628 26.3535 25.0005 26.4661 24.9885 27.3167V27.5323H19.8495L19.8639 27.0963C19.9285 25.3137 19.9717 24.2595 20.712 23.3898C21.874 22.029 24.4375 20.3758 24.5453 20.3063C24.897 20.0494 25.2038 19.7361 25.4533 19.3791C25.9924 18.634 26.2296 18.0494 26.2296 17.4791C26.2296 16.6789 25.9948 15.9386 25.5276 15.2845C25.0772 14.6472 24.2219 14.3309 22.9856 14.3309C21.759 14.3309 20.918 14.7191 20.4173 15.5193C19.8998 16.3363 19.6386 17.1964 19.6386 18.0757V18.2961H14.3415L14.351 18.0661C14.4876 14.8245 15.6472 12.4885 17.7891 11.1252C19.1379 10.2603 20.8174 9.82186 22.7748 9.82186C25.3335 9.82186 27.4994 10.4448 29.2004 11.6715C30.9278 12.915 31.8023 14.779 31.8023 17.2084C31.7999 18.5669 31.371 19.8439 30.5229 21.0059Z" fill="white"/>
</svg>
