<svg width="46" height="46" viewBox="0 0 46 46" fill="none" xmlns="http://www.w3.org/2000/svg">
<path d="M28.7499 42.2912V32.7079C28.7499 31.1829 28.1441 29.7204 27.0658 28.642C25.9874 27.5637 24.5249 26.9579 22.9999 26.9579C21.4749 26.9579 20.0124 27.5637 18.9341 28.642C17.8557 29.7204 17.2499 31.1829 17.2499 32.7079V42.2912H7.66659C6.64992 42.2912 5.6749 41.8874 4.95601 41.1685C4.23712 40.4496 3.83325 39.4746 3.83325 38.4579V17.6276C3.83325 16.9656 4.00466 16.3149 4.33081 15.7389C4.65695 15.1628 5.12671 14.6811 5.69434 14.3405L21.0277 5.14049C21.6234 4.78303 22.3051 4.59421 22.9999 4.59421C23.6947 4.59421 24.3764 4.78303 24.9722 5.14049L40.3055 14.3405C40.8731 14.6811 41.3429 15.1628 41.669 15.7389C41.9952 16.3149 42.1666 16.9656 42.1666 17.6276V38.4579C42.1666 39.4746 41.7627 40.4496 41.0438 41.1685C40.3249 41.8874 39.3499 42.2912 38.3333 42.2912H28.7499Z" fill="white"/>
</svg>
