<svg width="46" height="46" viewBox="0 0 46 46" fill="none" xmlns="http://www.w3.org/2000/svg">
<path d="M45.4311 19.5041L40.2894 17.9708C39.9339 16.7308 39.445 15.533 38.8313 14.3982L41.3484 9.69085C41.4429 9.51317 41.4774 9.3098 41.447 9.11092C41.4166 8.91204 41.3228 8.72826 41.1796 8.58686L37.5113 4.90688C37.3698 4.76377 37.1858 4.67007 36.9867 4.63969C36.7877 4.6093 36.5841 4.64385 36.4062 4.73821L31.725 7.23753C30.5779 6.59455 29.3631 6.08031 28.1028 5.70421L26.568 0.628899C26.503 0.441857 26.3804 0.280218 26.2177 0.167247C26.0549 0.0542764 25.8605 -0.00420015 25.6624 0.000234858H20.4747C20.2754 0.00116187 20.0816 0.0656075 19.9214 0.184193C19.7613 0.302778 19.6433 0.469314 19.5845 0.659565L18.0496 5.71954C16.7788 6.09364 15.5536 6.60791 14.3967 7.25286L9.79224 4.76888C9.61438 4.67452 9.4108 4.63997 9.21173 4.67035C9.01266 4.70074 8.8287 4.79444 8.68716 4.93754L4.95751 8.57152C4.81426 8.71293 4.72047 8.89671 4.69006 9.09559C4.65965 9.29446 4.69423 9.49783 4.78868 9.67552L7.27511 14.2755C6.63057 15.4264 6.11581 16.6452 5.74028 17.9095L0.659978 19.4428C0.469541 19.5016 0.302841 19.6195 0.184139 19.7794C0.0654369 19.9394 0.00092792 20.133 0 20.3321V25.5148C0.00092792 25.7139 0.0654369 25.9075 0.184139 26.0675C0.302841 26.2274 0.469541 26.3453 0.659978 26.4041L5.77097 27.9374C6.15061 29.1807 6.66528 30.3787 7.30581 31.5101L4.78868 36.3247C4.69423 36.5024 4.65965 36.7058 4.69006 36.9046C4.72047 37.1035 4.81426 37.2873 4.95751 37.4287L8.62576 41.0934C8.76731 41.2365 8.95127 41.3302 9.15034 41.3605C9.34941 41.3909 9.55298 41.3564 9.73084 41.262L14.4735 38.732C15.5954 39.3368 16.7788 39.82 18.0036 40.1734L19.5384 45.3407C19.5972 45.5309 19.7153 45.6975 19.8754 45.816C20.0355 45.9346 20.2293 45.9991 20.4286 46H25.6164C25.8157 45.9991 26.0095 45.9346 26.1696 45.816C26.3297 45.6975 26.4478 45.5309 26.5066 45.3407L28.0414 40.158C29.2557 39.8028 30.4288 39.3197 31.5408 38.7167L36.3142 41.262C36.492 41.3564 36.6956 41.3909 36.8947 41.3605C37.0937 41.3302 37.2777 41.2365 37.4192 41.0934L41.0875 37.4287C41.2307 37.2873 41.3245 37.1035 41.3549 36.9046C41.3853 36.7058 41.3508 36.5024 41.2563 36.3247L38.7085 31.5714C39.3184 30.4562 39.8072 29.2791 40.1666 28.0601L45.339 26.5268C45.5294 26.468 45.6961 26.3501 45.8148 26.1901C45.9335 26.0302 45.998 25.8365 45.9989 25.6374V20.4088C46.008 20.2181 45.9585 20.0293 45.8569 19.8675C45.7554 19.7058 45.6068 19.579 45.4311 19.5041ZM23.0685 31.4334C21.399 31.4334 19.7669 30.9388 18.3787 30.0121C16.9904 29.0855 15.9085 27.7684 15.2695 26.2274C14.6306 24.6864 14.4634 22.9908 14.7892 21.3549C15.1149 19.719 15.9189 18.2163 17.0994 17.0369C18.28 15.8575 19.7842 15.0543 21.4217 14.7289C23.0592 14.4035 24.7565 14.5705 26.299 15.2088C27.8415 15.8471 29.1599 16.928 30.0875 18.3148C31.015 19.7017 31.5101 21.3322 31.5101 23.0001C31.5101 25.2368 30.6207 27.3818 29.0376 28.9634C27.4545 30.5449 25.3074 31.4334 23.0685 31.4334Z" fill="white"/>
</svg>
