<svg width="46" height="46" viewBox="0 0 46 46" fill="none" xmlns="http://www.w3.org/2000/svg">
<g clip-path="url(#clip0_235_293)">
<path d="M13 8.70588V6.47059C13 5.24118 13.3525 4.18873 14.0575 3.31324C14.7625 2.43775 15.61 2 16.6 2H27.4C28.39 2 29.2375 2.43775 29.9425 3.31324C30.6475 4.18873 31 5.24118 31 6.47059V8.70588H32.26C32.98 8.70588 33.6325 8.95735 34.2175 9.46029C34.8025 9.96324 35.23 10.6059 35.5 11.3882L39.73 23.4588C39.82 23.7569 39.8875 24.0549 39.9325 24.3529C39.9775 24.651 40 24.949 40 25.2471V35.5294C40 36.7588 39.6475 37.8113 38.9425 38.6868C38.2375 39.5623 37.39 40 36.4 40H7.6C6.61 40 5.7625 39.5623 5.0575 38.6868C4.3525 37.8113 4 36.7588 4 35.5294V25.2471C4 24.949 4.0225 24.651 4.0675 24.3529C4.1125 24.0549 4.18 23.7569 4.27 23.4588L8.5 11.3882C8.77 10.6059 9.1975 9.96324 9.7825 9.46029C10.3675 8.95735 11.02 8.70588 11.74 8.70588H13ZM16.6 8.70588H27.4V6.47059H16.6V8.70588ZM13 22.1176V19.8824H16.6V22.1176H27.4V19.8824H31V22.1176H35.32L32.26 13.1765H11.74L8.68 22.1176H13ZM13 26.5882H7.6V35.5294H36.4V26.5882H31V28.8235H27.4V26.5882H16.6V28.8235H13V26.5882Z" fill="white"/>
</g>
<defs>
<clipPath id="clip0_235_293">
<rect width="46" height="46" fill="white"/>
</clipPath>
</defs>
</svg>
