<svg width="32" height="32" viewBox="0 0 32 32" fill="none" xmlns="http://www.w3.org/2000/svg">
<rect width="32" height="32" rx="16" fill="#EFF2F6"/>
<path d="M23.91 8.13625C23.685 7.4725 23.055 7 22.3125 7H9.9375C9.195 7 8.57625 7.4725 8.34 8.13625L6 14.875V23.875C6 24.4937 6.50625 25 7.125 25H8.25C8.86875 25 9.375 24.4937 9.375 23.875V22.75H22.875V23.875C22.875 24.4937 23.3813 25 24 25H25.125C25.7437 25 26.25 24.4937 26.25 23.875V14.875L23.91 8.13625ZM10.3312 9.25H21.9075L23.1225 12.7487H9.11625L10.3312 9.25ZM24 20.5H8.25V14.875H24V20.5Z" fill="black"/>
<path d="M11.0625 19.375C11.9945 19.375 12.75 18.6195 12.75 17.6875C12.75 16.7555 11.9945 16 11.0625 16C10.1305 16 9.375 16.7555 9.375 17.6875C9.375 18.6195 10.1305 19.375 11.0625 19.375Z" fill="black"/>
<path d="M21.1875 19.375C22.1195 19.375 22.875 18.6195 22.875 17.6875C22.875 16.7555 22.1195 16 21.1875 16C20.2555 16 19.5 16.7555 19.5 17.6875C19.5 18.6195 20.2555 19.375 21.1875 19.375Z" fill="black"/>
</svg>
