<svg width="23" height="24" viewBox="0 0 23 24" fill="none" xmlns="http://www.w3.org/2000/svg">
<rect y="0.25" width="23" height="23" rx="11.5" fill="#1E477B"/>
<g clip-path="url(#clip0_168_1855)">
<path d="M8.36 8.15152C8.4 8.66394 8.5 9.16485 8.66 9.64273L7.86 10.3336C7.58667 9.64273 7.41333 8.91152 7.35333 8.15152H8.36ZM14.9333 15.0721C15.5 15.2103 16.08 15.2967 16.6667 15.3312V16.1891C15.7867 16.1373 14.94 15.9876 14.1333 15.7573L14.9333 15.0721ZM9 7H6.66667C6.3 7 6 7.25909 6 7.57576C6 12.9821 11.0733 17.3636 17.3333 17.3636C17.7 17.3636 18 17.1045 18 16.7879V14.7785C18 14.4618 17.7 14.2027 17.3333 14.2027C16.5067 14.2027 15.7 14.0876 14.9533 13.8745C14.8867 13.8515 14.8133 13.8458 14.7467 13.8458C14.5733 13.8458 14.4067 13.9033 14.2733 14.0127L12.8067 15.2794C10.92 14.4445 9.37333 13.1145 8.41333 11.4852L9.88 10.2185C10.0667 10.0573 10.12 9.83273 10.0467 9.63121C9.8 8.98636 9.66667 8.29545 9.66667 7.57576C9.66667 7.25909 9.36667 7 9 7Z" fill="white"/>
</g>
<defs>
<clipPath id="clip0_168_1855">
<rect width="22" height="19" fill="white" transform="translate(1 3.25)"/>
</clipPath>
</defs>
</svg>
