<svg width="23" height="24" viewBox="0 0 23 24" fill="none" xmlns="http://www.w3.org/2000/svg">
<rect y="0.5" width="23" height="23" rx="11.5" fill="#1E477B"/>
<path d="M15.1436 7.00614C14.9441 6.98584 14.7273 7.01573 14.5095 7.09835C14.2394 7.20027 10.0077 8.90816 6.06298 10.5014L4.75955 11.0277C4.25483 11.224 4 11.5433 4 11.9735C4 12.2746 4.13284 12.6831 4.76658 12.9237L6.96671 13.7694C7.15695 14.317 7.59882 15.5884 7.70985 15.9264C7.77586 16.1268 7.94261 16.6316 8.36391 16.7496C8.45033 16.7778 8.54051 16.7923 8.63233 16.7923C8.89819 16.7923 9.08962 16.6736 9.18324 16.6045L10.5816 15.4698L12.2801 16.9768C12.3455 17.0407 12.6917 17.3636 13.1568 17.3636C13.7372 17.3636 14.1774 16.9001 14.2692 16.4516C14.319 16.2057 15.9571 8.31626 15.9571 8.31741C16.1041 7.68462 15.8397 7.35635 15.6699 7.21643C15.5244 7.09696 15.3431 7.02643 15.1436 7.00614ZM14.7463 8.24994C14.52 9.33818 13.2866 15.2783 13.0994 16.1345L10.6168 13.9314L8.9324 15.3L9.39891 13.549C9.39891 13.549 12.6172 10.4235 12.811 10.2416C12.9671 10.0959 12.9998 10.0448 12.9998 9.99418C12.9998 9.92681 12.9636 9.87835 12.8802 9.87835C12.8052 9.87835 12.7033 9.94731 12.6493 9.97956C11.9631 10.39 9.04129 11.987 7.60318 12.7719L5.51676 11.9723L6.5295 11.5641C9.1095 10.5219 13.7044 8.66566 14.7463 8.24994Z" fill="white"/>
</svg>
