<svg width="24" height="26" viewBox="0 0 24 26" fill="none" xmlns="http://www.w3.org/2000/svg">
<path d="M17.13 22.1347L21.3 17.7686L20.04 16.4397L17.13 19.4454L15.96 18.2115L14.7 19.572L17.13 22.1347ZM3.6 7.89726H18V5.36616H3.6V7.89726ZM18 25.615C16.34 25.615 14.9252 24.9982 13.7556 23.7647C12.5852 22.5304 12 21.0379 12 19.2872C12 17.5365 12.5852 16.044 13.7556 14.8097C14.9252 13.5762 16.34 12.9595 18 12.9595C19.66 12.9595 21.0752 13.5762 22.2456 14.8097C23.4152 16.044 24 17.5365 24 19.2872C24 21.0379 23.4152 22.5304 22.2456 23.7647C21.0752 24.9982 19.66 25.615 18 25.615ZM0 24.3494V2.83506C0 2.139 0.2348 1.54293 0.7044 1.04683C1.1748 0.551581 1.74 0.303955 2.4 0.303955H19.2C19.86 0.303955 20.4252 0.551581 20.8956 1.04683C21.3652 1.54293 21.6 2.139 21.6 2.83506V11.2826C21.22 11.0928 20.83 10.9346 20.43 10.808C20.03 10.6815 19.62 10.5866 19.2 10.5233V2.83506H2.4V20.616H9.69C9.79 21.2699 9.9452 21.8921 10.1556 22.4827C10.3652 23.0733 10.64 23.6323 10.98 24.1596L10.8 24.3494L9 22.4511L7.2 24.3494L5.4 22.4511L3.6 24.3494L1.8 22.4511L0 24.3494ZM3.6 18.0217H9.69C9.75 17.5787 9.84 17.1463 9.96 16.7245C10.08 16.3026 10.23 15.8913 10.41 15.4906H3.6V18.0217ZM3.6 12.9595H12.12C12.88 12.179 13.7648 11.5619 14.7744 11.108C15.7848 10.6549 16.86 10.4284 18 10.4284H3.6V12.9595Z" fill="white"/>
</svg>
