<svg width="40" height="28" viewBox="0 0 40 28" fill="none" xmlns="http://www.w3.org/2000/svg">
<path d="M14.2499 14C17.9491 14 20.9583 10.9908 20.9583 7.29168C20.9583 3.59251 17.9491 0.583344 14.2499 0.583344C10.5508 0.583344 7.54158 3.59251 7.54158 7.29168C7.54158 10.9908 10.5508 14 14.2499 14ZM14.2499 4.41668C15.8408 4.41668 17.1249 5.70084 17.1249 7.29168C17.1249 8.88251 15.8408 10.1667 14.2499 10.1667C12.6591 10.1667 11.3749 8.88251 11.3749 7.29168C11.3749 5.70084 12.6591 4.41668 14.2499 4.41668ZM14.3458 23.5833H6.14242C8.03992 22.625 11.3174 21.6667 14.2499 21.6667C14.4608 21.6667 14.6908 21.6858 14.9016 21.6858C15.5533 20.2867 16.6841 19.1367 18.0449 18.2167C16.6458 17.9675 15.3233 17.8333 14.2499 17.8333C9.76492 17.8333 0.833252 20.0758 0.833252 24.5417V27.4167H14.2499V24.5417C14.2499 24.2158 14.2883 23.89 14.3458 23.5833ZM28.6249 18.7917C25.0983 18.7917 18.0833 20.7275 18.0833 24.5417V27.4167H39.1666V24.5417C39.1666 20.7275 32.1516 18.7917 28.6249 18.7917ZM30.9441 15.3033C32.4007 14.4792 33.4166 12.9267 33.4166 11.125C33.4166 8.48001 31.2699 6.33334 28.6249 6.33334C25.9799 6.33334 23.8333 8.48001 23.8333 11.125C23.8333 12.9267 24.8491 14.4792 26.3058 15.3033C26.9958 15.6867 27.7816 15.9167 28.6249 15.9167C29.4683 15.9167 30.2541 15.6867 30.9441 15.3033Z" fill="white"/>
</svg>
