<svg width="24" height="26" viewBox="0 0 24 26" fill="none" xmlns="http://www.w3.org/2000/svg">
<path d="M14.1158 0.0810547H8.46875V6.40881H14.1158V0.0810547Z" fill="white"/>
<path d="M5.64706 19.0643H0V25.3921H5.64706V19.0643Z" fill="white"/>
<path d="M5.64706 9.57269H0V15.9004H5.64706V9.57269Z" fill="white"/>
<path d="M5.64706 0.0810547H0V6.40881H5.64706V0.0810547Z" fill="white"/>
<path d="M22.5885 0.0810547H16.9414V6.40881H22.5885V0.0810547Z" fill="white"/>
<path d="M9.88281 22.0067V25.3921H12.8475L21.2899 15.9479L18.2969 12.5942L9.88281 22.0067Z" fill="white"/>
<path d="M14.1158 12.784V9.57269H8.46875V15.9004H11.3346L14.1158 12.784Z" fill="white"/>
<path d="M23.7902 12.0405L21.7996 9.80998C21.5173 9.4936 21.0796 9.4936 20.7973 9.80998L19.3008 11.4868L22.2937 14.8405L23.7902 13.1637C24.0725 12.8473 24.0725 12.3569 23.7902 12.0405Z" fill="white"/>
</svg>
