<svg width="55" height="57" viewBox="0 0 55 57" fill="none" xmlns="http://www.w3.org/2000/svg">
<g filter="url(#filter0_d_49_14288)">
<rect x="10.5" y="0.5" width="44" height="44" rx="12" fill="white" shape-rendering="crispEdges"/>
<path fill-rule="evenodd" clip-rule="evenodd" d="M24.3484 22.4999C24.3484 17.9988 27.9973 14.3499 32.4984 14.3499C33.3893 14.3499 34.2452 14.4925 35.0455 14.7556C35.4915 14.9022 35.9719 14.6595 36.1184 14.2135C36.265 13.7675 36.0223 13.2872 35.5763 13.1406C34.6069 12.8219 33.5719 12.6499 32.4984 12.6499C27.0584 12.6499 22.6484 17.0599 22.6484 22.4999C22.6484 27.9399 27.0584 32.3499 32.4984 32.3499C37.9384 32.3499 42.3484 27.9399 42.3484 22.4999C42.3484 22.0305 41.9679 21.6499 41.4984 21.6499C41.029 21.6499 40.6484 22.0305 40.6484 22.4999C40.6484 27.001 36.9996 30.6499 32.4984 30.6499C27.9973 30.6499 24.3484 27.001 24.3484 22.4999ZM40.1008 18.0996C40.432 17.767 40.4308 17.2288 40.0982 16.8976C39.7655 16.5663 39.2273 16.5675 38.8961 16.9002L32.548 23.2758L30.1194 20.678C29.7988 20.335 29.2609 20.3169 28.918 20.6375C28.575 20.9581 28.5569 21.496 28.8775 21.8389L31.9078 25.0804C32.0654 25.2489 32.2847 25.3462 32.5154 25.3498C32.746 25.3534 32.9683 25.2631 33.1311 25.0996L40.1008 18.0996Z" fill="#967FF2"/>
</g>
<defs>
<filter id="filter0_d_49_14288" x="0.5" y="-7.5" width="64" height="64" filterUnits="userSpaceOnUse" color-interpolation-filters="sRGB">
<feFlood flood-opacity="0" result="BackgroundImageFix"/>
<feColorMatrix in="SourceAlpha" type="matrix" values="0 0 0 0 0 0 0 0 0 0 0 0 0 0 0 0 0 0 127 0" result="hardAlpha"/>
<feOffset dy="2"/>
<feGaussianBlur stdDeviation="5"/>
<feComposite in2="hardAlpha" operator="out"/>
<feColorMatrix type="matrix" values="0 0 0 0 0.486275 0 0 0 0 0.552941 0 0 0 0 0.709804 0 0 0 0.12 0"/>
<feBlend mode="normal" in2="BackgroundImageFix" result="effect1_dropShadow_49_14288"/>
<feBlend mode="normal" in="SourceGraphic" in2="effect1_dropShadow_49_14288" result="shape"/>
</filter>
</defs>
</svg>
