<svg width="9" height="12" viewBox="0 0 9 12" fill="none" xmlns="http://www.w3.org/2000/svg">
<path d="M2.25 6V4.875H6.75V6H2.25ZM2.25 3.75V2.625H6.75V3.75H2.25ZM1.125 7.125H5.34375C5.61562 7.125 5.86875 7.1835 6.10313 7.3005C6.3375 7.41788 6.53437 7.58437 6.69375 7.8L7.875 9.34688V1.5H1.125V7.125ZM1.125 10.5H7.34062L5.80781 8.48906C5.75156 8.41406 5.68369 8.35556 5.60419 8.31356C5.52431 8.27119 5.4375 8.25 5.34375 8.25H1.125V10.5ZM7.875 11.625H1.125C0.815625 11.625 0.550875 11.5149 0.33075 11.2948C0.11025 11.0743 0 10.8094 0 10.5V1.5C0 1.19063 0.11025 0.925687 0.33075 0.705187C0.550875 0.485062 0.815625 0.375 1.125 0.375H7.875C8.18437 0.375 8.44931 0.485062 8.66981 0.705187C8.88994 0.925687 9 1.19063 9 1.5V10.5C9 10.8094 8.88994 11.0743 8.66981 11.2948C8.44931 11.5149 8.18437 11.625 7.875 11.625Z" fill="white"/>
</svg>
