<svg width="20" height="20" viewBox="0 0 20 20" fill="none" xmlns="http://www.w3.org/2000/svg">
<path d="M7.21228 4.79675C7.0615 4.94753 6.96915 5.15705 6.96944 5.38716L6.96944 5.48844C6.96944 5.94924 7.34248 6.32227 7.80269 6.32168L12.3556 6.32168L4.65385 14.0234C4.32858 14.3487 4.32858 14.8767 4.65385 15.2019C4.97912 15.5272 5.50709 15.5272 5.83236 15.2019L13.5341 7.50019V12.0531C13.5341 12.5139 13.9072 12.8869 14.3674 12.8864H14.4686C14.9294 12.8864 15.3025 12.5133 15.3019 12.0531V5.38716C15.3019 4.92636 14.9288 4.55333 14.4686 4.55391L7.80269 4.55391C7.57229 4.55391 7.36306 4.64598 7.21228 4.79675Z" fill="#34C759"/>
</svg>
