<svg width="373" height="373" viewBox="0 0 373 373" fill="none" xmlns="http://www.w3.org/2000/svg">
<path d="M112.642 98.4267C112.642 98.4267 152.638 128.778 213.442 72.0263C267.442 21.6264 311.534 101.146 311.842 139.228C312.242 188.557 257.842 228.027 284.243 260.427C310.642 292.828 231.887 346.332 189.442 300.028C136.641 242.427 122.338 289.228 92.2417 289.228C70.6415 289.228 26.2942 235.556 56.2414 195.626C81.4417 162.027 67.6979 150.876 61.0423 139.228C51.4414 122.427 74.2416 76.8267 112.642 98.4267Z" fill="#DEE9FF"/>
<path d="M273.212 165.499C275.362 166.298 277.71 166.351 279.946 165.837C289.311 163.688 321.512 157.996 315.917 182.95C314.698 187.9 295.839 215.627 322.697 225.748C324.666 226.499 326.746 226.909 328.853 226.96C337.122 227.13 353.509 225.177 360.367 218.197C368.653 209.763 359.601 213.762 359.601 213.762C359.601 213.762 328.104 227.507 316.978 212.924C315.74 211.302 314.952 208.945 314.726 206.916C314.335 203.4 315.896 198.752 317.948 194.705C320.725 189.228 334.056 164.593 305.111 157.417C298.444 155.829 288.759 154.403 276.273 159.66C268.989 162.727 270.602 164.529 273.212 165.499Z" fill="#BDD6F9"/>
<path d="M279.657 156.302L271.274 159.44C268.38 160.523 266.912 163.747 267.995 166.64L268.411 167.751C269.494 170.645 272.718 172.113 275.611 171.03L283.995 167.893C286.889 166.81 288.357 163.586 287.274 160.691L286.858 159.581C285.775 156.687 282.551 155.219 279.657 156.302Z" fill="#1E477B"/>
<path d="M228.196 165.382L200.549 175.73C199.101 176.27 198.367 177.882 198.909 179.329L199.018 179.621C199.559 181.068 201.171 181.802 202.619 181.261L230.266 170.913C231.714 170.37 232.448 168.759 231.906 167.312L231.797 167.02C231.256 165.573 229.644 164.839 228.196 165.382Z" fill="white"/>
<path d="M235.913 185.999L208.264 196.346C206.818 196.888 206.084 198.5 206.626 199.947L206.734 200.238C207.276 201.685 208.888 202.419 210.335 201.877L237.983 191.53C239.43 190.988 240.164 189.376 239.623 187.929L239.514 187.638C238.973 186.191 237.36 185.457 235.913 185.999Z" fill="white"/>
<path d="M261.441 151.311L239.033 159.697C236.138 160.78 234.67 164.005 235.753 166.899L243.405 187.341C244.488 190.234 247.712 191.702 250.605 190.619L273.014 182.233C275.908 181.15 277.376 177.926 276.293 175.032L268.642 154.59C267.559 151.696 264.335 150.228 261.441 151.311Z" fill="#5895F9"/>
<path d="M241.347 156.673L218.938 165.061C216.044 166.144 214.576 169.367 215.659 172.262L224.787 196.65C225.87 199.543 229.094 201.011 231.987 199.928L254.397 191.542C257.29 190.459 258.758 187.235 257.675 184.341L248.547 159.953C247.464 157.058 244.24 155.59 241.347 156.673Z" fill="#699CFF"/>
<path d="M244.855 151.724L244.679 151.79C242.751 152.512 241.771 154.662 242.493 156.591L255.281 190.756C256.003 192.685 258.151 193.664 260.08 192.942L260.256 192.876C262.187 192.154 263.164 190.005 262.442 188.076L249.656 153.91C248.934 151.982 246.784 151.002 244.855 151.724Z" fill="#1E477B"/>
<path d="M16.3611 173.568C16.3611 173.568 61.365 160.92 54.8312 190.059C53.6965 194.67 37.363 218.409 56.8187 229.807C60.9963 232.254 65.8173 233.338 70.6587 233.313C79.3389 233.268 93.0998 231.597 99.2818 225.305C107.567 216.872 98.5157 220.871 98.5157 220.871C98.5157 220.871 72.6692 231.502 59.3721 223.027C54.8318 220.134 52.7738 214.531 54.0066 209.289C54.6369 206.686 55.5964 204.174 56.8624 201.813C59.7542 196.396 72.9708 171.701 44.026 164.525C37.3582 162.937 27.6738 161.512 15.1867 166.768C2.69958 172.026 16.3611 173.568 16.3611 173.568Z" fill="#BDD6F9"/>
<path d="M105.333 214.35L96.9499 217.488C94.0558 218.571 92.5878 221.795 93.671 224.69L94.0866 225.8C95.1696 228.694 98.3937 230.162 101.288 229.078L109.671 225.941C112.565 224.858 114.033 221.634 112.95 218.739L112.535 217.63C111.451 214.735 108.227 213.267 105.333 214.35Z" fill="#1E477B"/>
<path d="M119.498 200.557L107.073 205.207C104.179 206.29 102.711 209.514 103.794 212.409L109.785 228.416C110.868 231.311 114.092 232.779 116.986 231.696L129.411 227.045C132.305 225.962 133.773 222.738 132.69 219.844L126.699 203.837C125.616 200.942 122.392 199.474 119.498 200.557Z" fill="#5895F9"/>
<path d="M140.181 188.232L121.653 195.167C118.759 196.25 117.291 199.474 118.374 202.369L127.502 226.756C128.585 229.651 131.809 231.119 134.702 230.036L153.231 223.101C156.126 222.018 157.594 218.794 156.511 215.899L147.383 191.512C146.3 188.617 143.076 187.149 140.181 188.232Z" fill="#699CFF"/>
<path d="M144.107 183.182L143.932 183.247C142.001 183.969 141.024 186.119 141.746 188.048L154.531 222.213C155.253 224.142 157.404 225.121 159.333 224.399L159.508 224.333C161.437 223.611 162.416 221.462 161.694 219.532L148.907 185.368C148.185 183.439 146.036 182.46 144.107 183.182Z" fill="#1E477B"/>
<path d="M191.422 161.416C190.754 161.341 190.141 161.012 189.712 160.495C189.285 159.978 189.073 159.316 189.122 158.646L190.505 133.394C190.588 131.886 191.861 130.74 193.307 130.873L195.321 131.06C196.766 131.193 197.801 132.552 197.599 134.05L194.202 159.115C194.124 159.783 193.791 160.394 193.273 160.823C192.755 161.252 192.092 161.464 191.422 161.416Z" fill="#1E477B"/>
<path d="M179.483 163.592C179.275 163.654 179.058 163.674 178.842 163.651C178.628 163.627 178.419 163.562 178.229 163.458C178.039 163.355 177.872 163.215 177.736 163.046C177.601 162.878 177.499 162.684 177.438 162.477L172.501 146.769C172.357 146.323 172.397 145.836 172.61 145.419C172.825 145.001 173.195 144.685 173.643 144.542L174.92 144.155C175.14 144.091 175.371 144.074 175.597 144.103C175.823 144.133 176.041 144.208 176.236 144.327C176.432 144.444 176.601 144.601 176.733 144.788C176.865 144.974 176.957 145.186 177.002 145.41L180.662 161.505C180.764 161.937 180.699 162.392 180.481 162.78C180.262 163.166 179.907 163.457 179.483 163.592Z" fill="#1E477B"/>
<path d="M172.821 172.651C171.936 173.747 170.157 173.734 168.787 172.622L144.474 152.867C143.021 151.687 142.593 149.734 143.531 148.573L144.839 146.953C145.778 145.79 147.705 145.886 149.079 147.162L172.085 168.537C173.382 169.74 173.705 171.556 172.821 172.651Z" fill="#1E477B"/>
<path d="M184.061 223.675C184.687 223.917 185.194 224.393 185.477 225.002C185.76 225.61 185.795 226.306 185.577 226.94L177.79 251.001C177.325 252.438 175.801 253.22 174.437 252.722L172.536 252.028C171.173 251.53 170.519 249.951 171.097 248.557L180.783 225.189C181.03 224.563 181.507 224.057 182.118 223.775C182.728 223.492 183.424 223.456 184.061 223.675Z" fill="#1E477B"/>
<path d="M196.158 224.619C196.374 224.613 196.59 224.65 196.793 224.727C196.994 224.804 197.179 224.92 197.336 225.07C197.493 225.217 197.62 225.396 197.708 225.593C197.796 225.79 197.845 226.003 197.85 226.221L198.612 242.668C198.636 243.137 198.475 243.596 198.161 243.945C197.848 244.295 197.408 244.505 196.94 244.531L195.606 244.577C195.377 244.583 195.15 244.541 194.938 244.455C194.726 244.368 194.536 244.239 194.376 244.075C194.218 243.911 194.094 243.717 194.014 243.502C193.935 243.288 193.9 243.06 193.912 242.832L194.485 226.338C194.497 225.893 194.677 225.469 194.986 225.151C195.297 224.832 195.715 224.643 196.158 224.619Z" fill="#1E477B"/>
<path d="M204.913 217.562C206.048 216.728 207.765 217.195 208.804 218.621L227.267 243.929C228.369 245.441 228.285 247.438 227.081 248.322L225.402 249.554C224.198 250.439 222.358 249.854 221.355 248.269L204.57 221.727C203.627 220.234 203.778 218.395 204.913 217.562Z" fill="#1E477B"/>
</svg>
