<svg width="64" height="65" viewBox="0 0 64 65" fill="none" xmlns="http://www.w3.org/2000/svg">
<g filter="url(#filter0_d_49_14273)">
<rect x="10" y="8.5" width="44" height="44" rx="12" fill="white" shape-rendering="crispEdges"/>
<path fill-rule="evenodd" clip-rule="evenodd" d="M28.8912 24.7901C28.9579 24.3247 29.1001 24.068 29.3016 23.8953C29.6369 23.6079 30.3614 23.3499 31.9984 23.3499C33.6355 23.3499 34.36 23.6079 34.6953 23.8953C34.8971 24.0683 35.0394 24.3255 35.106 24.7923C34.1998 24.6893 33.1671 24.6499 31.9984 24.6499C30.8284 24.6499 29.7962 24.6895 28.8912 24.7901ZM27.1573 25.1031C27.2013 24.1775 27.4251 23.2646 28.1953 22.6045C29.0266 21.8919 30.3022 21.6499 31.9984 21.6499C33.6947 21.6499 34.9703 21.8919 35.8016 22.6045C36.5747 23.2672 36.7973 24.1846 36.8401 25.1139C37.7257 25.3608 38.476 25.7341 39.0789 26.2976C40.2598 27.4015 40.6863 29.0593 40.8076 31.2388C40.8341 31.3211 40.8484 31.4088 40.8484 31.4999C40.8484 31.6576 40.8453 31.8168 40.8371 31.9765C40.845 32.2792 40.8484 32.591 40.8484 32.9117C40.8484 35.3465 40.5305 37.3445 39.0647 38.654C37.6377 39.9289 35.3358 40.3499 31.9984 40.3499C30.3136 40.3499 28.9144 40.2679 27.7697 40.0395C26.6207 39.8104 25.6687 39.4226 24.9331 38.7675C23.4537 37.4499 23.1484 35.3221 23.1484 32.4999C23.1484 32.2797 23.1503 32.0638 23.1544 31.8521C23.1502 31.7342 23.1484 31.6166 23.1484 31.4999C23.1484 31.433 23.1562 31.3679 23.1708 31.3054C23.263 29.072 23.6703 27.3571 24.9331 26.2323C25.5337 25.6974 26.2787 25.3407 27.1573 25.1031ZM24.8554 31.8409C24.9094 29.4191 25.2781 28.2016 26.0638 27.5018C26.4949 27.1179 27.1262 26.8221 28.1022 26.6274C29.0824 26.4319 30.3499 26.3499 31.9984 26.3499C33.6477 26.3499 34.9126 26.4321 35.8898 26.6329C36.8607 26.8324 37.4877 27.1373 37.918 27.5395C38.6901 28.2613 39.0631 29.5151 39.1353 31.9589C39.1121 32.3252 39.057 32.6212 38.9597 32.8694C38.8354 33.1867 38.6266 33.4657 38.2246 33.7151C37.3419 34.2629 35.5676 34.6499 32.0045 34.6499C28.4417 34.6499 26.6637 34.263 25.7774 33.7146C25.3735 33.4647 25.1634 33.185 25.0384 32.8678C24.9304 32.5939 24.874 32.2616 24.8554 31.8409ZM38.9811 35.2429C38.7998 36.2422 38.4632 36.9118 37.9321 37.3862C37.0258 38.1959 35.3277 38.6499 31.9984 38.6499C30.3499 38.6499 29.0824 38.5679 28.1022 38.3724C27.1262 38.1777 26.4949 37.8819 26.0638 37.498C25.5461 37.037 25.2095 36.3512 25.0246 35.2443C26.3741 36.0115 28.5668 36.3499 32.0045 36.3499C35.4432 36.3499 37.6341 36.0113 38.9811 35.2429ZM29.1484 32.4999C29.1484 32.0305 29.529 31.6499 29.9984 31.6499H33.9984C34.4679 31.6499 34.8484 32.0305 34.8484 32.4999C34.8484 32.9693 34.4679 33.3499 33.9984 33.3499L29.9984 33.3499C29.529 33.3499 29.1484 32.9693 29.1484 32.4999Z" fill="#FD8584"/>
</g>
<defs>
<filter id="filter0_d_49_14273" x="0" y="0.5" width="64" height="64" filterUnits="userSpaceOnUse" color-interpolation-filters="sRGB">
<feFlood flood-opacity="0" result="BackgroundImageFix"/>
<feColorMatrix in="SourceAlpha" type="matrix" values="0 0 0 0 0 0 0 0 0 0 0 0 0 0 0 0 0 0 127 0" result="hardAlpha"/>
<feOffset dy="2"/>
<feGaussianBlur stdDeviation="5"/>
<feComposite in2="hardAlpha" operator="out"/>
<feColorMatrix type="matrix" values="0 0 0 0 0.486275 0 0 0 0 0.552941 0 0 0 0 0.709804 0 0 0 0.12 0"/>
<feBlend mode="normal" in2="BackgroundImageFix" result="effect1_dropShadow_49_14273"/>
<feBlend mode="normal" in="SourceGraphic" in2="effect1_dropShadow_49_14273" result="shape"/>
</filter>
</defs>
</svg>
