<svg width="65" height="65" viewBox="0 0 65 65" fill="none" xmlns="http://www.w3.org/2000/svg">
<g filter="url(#filter0_d_796_5154)">
<rect x="10.333" y="8.5" width="44" height="44" rx="12" fill="#061217" shape-rendering="crispEdges"/>
<path fill-rule="evenodd" clip-rule="evenodd" d="M29.2257 24.7906C29.2924 24.3252 29.4346 24.0685 29.6361 23.8958C29.9714 23.6083 30.6959 23.3504 32.3329 23.3504C33.97 23.3504 34.6944 23.6083 35.0297 23.8958C35.2316 24.0687 35.3739 24.326 35.4404 24.7928C34.5342 24.6898 33.5015 24.6504 32.3329 24.6504C31.1629 24.6504 30.1307 24.69 29.2257 24.7906ZM27.4918 25.1036C27.5357 24.178 27.7596 23.2651 28.5297 22.605C29.3611 21.8924 30.6366 21.6504 32.3329 21.6504C34.0292 21.6504 35.3047 21.8924 36.1361 22.605C36.9092 23.2677 37.1318 24.1851 37.1745 25.1143C38.0601 25.3613 38.8105 25.7346 39.4133 26.2981C40.5943 27.402 41.0207 29.0598 41.1421 31.2393C41.1686 31.3216 41.1829 31.4093 41.1829 31.5004C41.1829 31.6581 41.1798 31.8172 41.1716 31.977C41.1795 32.2797 41.1829 32.5914 41.1829 32.9122C41.1829 35.347 40.865 37.345 39.3992 38.6545C37.9722 39.9294 35.6703 40.3504 32.3329 40.3504C30.6481 40.3504 29.2489 40.2683 28.1042 40.04C26.9551 39.8109 26.0031 39.423 25.2676 38.768C23.7882 37.4503 23.4829 35.3226 23.4829 32.5004C23.4829 32.2802 23.4848 32.0643 23.4889 31.8526C23.4846 31.7346 23.4829 31.6171 23.4829 31.5004C23.4829 31.4335 23.4906 31.3684 23.5053 31.3059C23.5975 29.0725 24.0047 27.3575 25.2676 26.2328C25.8682 25.6979 26.6131 25.3412 27.4918 25.1036ZM25.1899 31.8414C25.2438 29.4196 25.6126 28.202 26.3982 27.5023C26.8294 27.1184 27.4607 26.8226 28.4367 26.6279C29.4169 26.4324 30.6844 26.3504 32.3329 26.3504C33.9822 26.3504 35.2471 26.4326 36.2243 26.6334C37.1952 26.8329 37.8221 27.1377 38.2525 27.54C39.0246 28.2618 39.3975 29.5156 39.4697 31.9594C39.4466 32.3257 39.3915 32.6217 39.2942 32.8699C39.1699 33.1871 38.9611 33.4662 38.5591 33.7156C37.6763 34.2634 35.9021 34.6504 32.339 34.6504C28.7761 34.6504 26.9981 34.2635 26.1119 33.7151C25.7079 33.4651 25.4979 33.1855 25.3729 32.8683C25.2649 32.5944 25.2084 32.2621 25.1899 31.8414ZM39.3156 35.2434C39.1343 36.2427 38.7976 36.9123 38.2666 37.3867C37.3603 38.1964 35.6622 38.6504 32.3329 38.6504C30.6844 38.6504 29.4169 38.5684 28.4367 38.3729C27.4607 38.1782 26.8294 37.8824 26.3982 37.4985C25.8806 37.0374 25.544 36.3516 25.3591 35.2448C26.7086 36.012 28.9013 36.3504 32.339 36.3504C35.7777 36.3504 37.9686 36.0118 39.3156 35.2434ZM29.4829 32.5004C29.4829 32.0309 29.8635 31.6504 30.3329 31.6504H34.3329C34.8024 31.6504 35.1829 32.0309 35.1829 32.5004C35.1829 32.9698 34.8024 33.3504 34.3329 33.3504L30.3329 33.3504C29.8635 33.3504 29.4829 32.9698 29.4829 32.5004Z" fill="white"/>
</g>
<defs>
<filter id="filter0_d_796_5154" x="0.333008" y="0.5" width="64" height="64" filterUnits="userSpaceOnUse" color-interpolation-filters="sRGB">
<feFlood flood-opacity="0" result="BackgroundImageFix"/>
<feColorMatrix in="SourceAlpha" type="matrix" values="0 0 0 0 0 0 0 0 0 0 0 0 0 0 0 0 0 0 127 0" result="hardAlpha"/>
<feOffset dy="2"/>
<feGaussianBlur stdDeviation="5"/>
<feComposite in2="hardAlpha" operator="out"/>
<feColorMatrix type="matrix" values="0 0 0 0 0.486275 0 0 0 0 0.552941 0 0 0 0 0.709804 0 0 0 0.12 0"/>
<feBlend mode="normal" in2="BackgroundImageFix" result="effect1_dropShadow_796_5154"/>
<feBlend mode="normal" in="SourceGraphic" in2="effect1_dropShadow_796_5154" result="shape"/>
</filter>
</defs>
</svg>
