<svg width="65" height="65" viewBox="0 0 65 65" fill="none" xmlns="http://www.w3.org/2000/svg">
<g filter="url(#filter0_d_796_5139)">
<rect x="10.6665" y="8.5" width="44" height="44" rx="12" fill="#061217" shape-rendering="crispEdges"/>
<path fill-rule="evenodd" clip-rule="evenodd" d="M27.5164 26.5004C27.5164 24.7607 28.9267 23.3504 30.6664 23.3504C32.4061 23.3504 33.8164 24.7607 33.8164 26.5004C33.8164 28.2401 32.4061 29.6504 30.6664 29.6504C28.9267 29.6504 27.5164 28.2401 27.5164 26.5004ZM30.6664 21.6504C27.9878 21.6504 25.8164 23.8218 25.8164 26.5004C25.8164 29.179 27.9878 31.3504 30.6664 31.3504C33.345 31.3504 35.5164 29.179 35.5164 26.5004C35.5164 23.8218 33.345 21.6504 30.6664 21.6504ZM25.5164 36.4171C25.5164 36.014 25.8451 35.4983 26.8848 35.0392C27.8743 34.6022 29.2506 34.3504 30.6664 34.3504C32.0621 34.3504 33.4373 34.6435 34.4343 35.1051C34.9333 35.3361 35.2992 35.5916 35.5294 35.8382C35.751 36.0756 35.814 36.266 35.8163 36.4089C35.8083 36.4304 35.7715 36.4985 35.6291 36.6092C35.4107 36.779 35.0461 36.962 34.5314 37.1274C33.511 37.4553 32.1027 37.6504 30.6664 37.6504C28.9679 37.6504 27.5698 37.4525 26.6277 37.132C26.154 36.9708 25.8475 36.7959 25.6741 36.6429C25.5153 36.5028 25.5163 36.429 25.5164 36.4178L25.5164 36.4171ZM35.8183 36.4014C35.8185 36.4014 35.8183 36.4034 35.817 36.4072C35.8174 36.4033 35.8181 36.4014 35.8183 36.4014ZM30.6664 32.6504C29.0822 32.6504 27.4585 32.9274 26.198 33.484C24.9878 34.0185 23.8164 34.9611 23.8164 36.4171C23.8164 37.046 24.134 37.5511 24.5493 37.9176C24.9541 38.2748 25.4913 38.541 26.0801 38.7414C27.263 39.1439 28.8649 39.3504 30.6664 39.3504C32.2301 39.3504 33.8218 39.141 35.0515 38.7459C35.6617 38.5498 36.2347 38.2917 36.6724 37.9514C37.1068 37.6137 37.5164 37.1038 37.5164 36.4171C37.5164 35.7275 37.2025 35.1393 36.7722 34.6782C36.3461 34.2217 35.7746 33.8522 35.1485 33.5624C33.8955 32.9823 32.2707 32.6504 30.6664 32.6504ZM36.8203 30.4189C36.8654 29.9516 37.2807 29.6093 37.7479 29.6543C38.9621 29.7713 40.0886 30.0869 40.9398 30.5792C41.7642 31.0559 42.5164 31.8204 42.5164 32.8737C42.5164 33.4196 42.3075 33.9174 41.9013 34.313C41.5184 34.6859 40.9956 34.9353 40.3982 35.1047C39.9466 35.2327 39.4767 34.9704 39.3486 34.5187C39.2206 34.0671 39.4829 33.5972 39.9346 33.4691C40.3822 33.3422 40.6094 33.1982 40.7152 33.0951C40.7978 33.0147 40.8164 32.954 40.8164 32.8737C40.8164 32.717 40.6992 32.4038 40.0888 32.0508C39.5053 31.7134 38.6317 31.4474 37.5849 31.3465C37.1176 31.3014 36.7753 30.8861 36.8203 30.4189ZM38.6664 21.6504C38.197 21.6504 37.8164 22.0309 37.8164 22.5004C37.8164 22.9698 38.197 23.3504 38.6664 23.3504C39.5777 23.3504 40.3164 24.0891 40.3164 25.0004C40.3164 25.9117 39.5777 26.6504 38.6664 26.6504C38.197 26.6504 37.8164 27.0309 37.8164 27.5004C37.8164 27.9698 38.197 28.3504 38.6664 28.3504C40.5166 28.3504 42.0164 26.8505 42.0164 25.0004C42.0164 23.1502 40.5166 21.6504 38.6664 21.6504Z" fill="white"/>
</g>
<defs>
<filter id="filter0_d_796_5139" x="0.666504" y="0.5" width="64" height="64" filterUnits="userSpaceOnUse" color-interpolation-filters="sRGB">
<feFlood flood-opacity="0" result="BackgroundImageFix"/>
<feColorMatrix in="SourceAlpha" type="matrix" values="0 0 0 0 0 0 0 0 0 0 0 0 0 0 0 0 0 0 127 0" result="hardAlpha"/>
<feOffset dy="2"/>
<feGaussianBlur stdDeviation="5"/>
<feComposite in2="hardAlpha" operator="out"/>
<feColorMatrix type="matrix" values="0 0 0 0 0.486275 0 0 0 0 0.552941 0 0 0 0 0.709804 0 0 0 0.12 0"/>
<feBlend mode="normal" in2="BackgroundImageFix" result="effect1_dropShadow_796_5139"/>
<feBlend mode="normal" in="SourceGraphic" in2="effect1_dropShadow_796_5139" result="shape"/>
</filter>
</defs>
</svg>
