<svg width="65" height="65" viewBox="0 0 65 65" fill="none" xmlns="http://www.w3.org/2000/svg">
<g filter="url(#filter0_d_49_14258)">
<rect x="10.5" y="8.5" width="44" height="44" rx="12" fill="white" shape-rendering="crispEdges"/>
<path fill-rule="evenodd" clip-rule="evenodd" d="M27.3484 26.4999C27.3484 24.7602 28.7587 23.3499 30.4984 23.3499C32.2381 23.3499 33.6484 24.7602 33.6484 26.4999C33.6484 28.2396 32.2381 29.6499 30.4984 29.6499C28.7587 29.6499 27.3484 28.2396 27.3484 26.4999ZM30.4984 21.6499C27.8199 21.6499 25.6484 23.8213 25.6484 26.4999C25.6484 29.1785 27.8199 31.3499 30.4984 31.3499C33.177 31.3499 35.3484 29.1785 35.3484 26.4999C35.3484 23.8213 33.177 21.6499 30.4984 21.6499ZM25.3484 36.4166C25.3484 36.0136 25.6771 35.4978 26.7168 35.0387C27.7063 34.6017 29.0827 34.3499 30.4984 34.3499C31.8941 34.3499 33.2693 34.643 34.2663 35.1046C34.7653 35.3356 35.1313 35.5911 35.3614 35.8377C35.5831 36.0752 35.6461 36.2655 35.6484 36.4084C35.6403 36.4299 35.6035 36.498 35.4612 36.6087C35.2427 36.7785 34.8781 36.9615 34.3634 37.1269C33.343 37.4548 31.9347 37.6499 30.4984 37.6499C28.7999 37.6499 27.4018 37.452 26.4597 37.1315C25.9861 36.9703 25.6795 36.7954 25.5061 36.6424C25.3474 36.5023 25.3483 36.4285 25.3484 36.4173L25.3484 36.4166ZM35.6503 36.4009C35.6505 36.401 35.6503 36.4029 35.649 36.4067C35.6495 36.4028 35.6501 36.4009 35.6503 36.4009ZM30.4984 32.6499C28.9142 32.6499 27.2905 32.9269 26.0301 33.4836C24.8198 34.018 23.6484 34.9606 23.6484 36.4166C23.6484 37.0455 23.966 37.5506 24.3814 37.9171C24.7861 38.2743 25.3233 38.5405 25.9121 38.7409C27.0951 39.1434 28.6969 39.3499 30.4984 39.3499C32.0621 39.3499 33.6539 39.1406 34.8835 38.7454C35.4938 38.5493 36.0667 38.2912 36.5045 37.9509C36.9388 37.6133 37.3484 37.1033 37.3484 36.4166C37.3484 35.727 37.0346 35.1388 36.6042 34.6777C36.1781 34.2212 35.6066 33.8517 34.9805 33.5619C33.7275 32.9818 32.1027 32.6499 30.4984 32.6499ZM36.6524 30.4184C36.6974 29.9511 37.1127 29.6088 37.58 29.6538C38.7941 29.7708 39.9206 30.0864 40.7718 30.5787C41.5962 31.0554 42.3484 31.8199 42.3484 32.8732C42.3484 33.4191 42.1395 33.9169 41.7333 34.3125C41.3504 34.6854 40.8276 34.9348 40.2303 35.1042C39.7786 35.2322 39.3087 34.9699 39.1807 34.5182C39.0526 34.0666 39.315 33.5967 39.7666 33.4686C40.2142 33.3417 40.4414 33.1977 40.5473 33.0946C40.6298 33.0142 40.6484 32.9535 40.6484 32.8732C40.6484 32.7165 40.5312 32.4033 39.9208 32.0503C39.3373 31.7129 38.4638 31.4469 37.4169 31.346C36.9496 31.301 36.6073 30.8856 36.6524 30.4184ZM38.4984 21.6499C38.029 21.6499 37.6484 22.0305 37.6484 22.4999C37.6484 22.9693 38.029 23.3499 38.4984 23.3499C39.4097 23.3499 40.1484 24.0886 40.1484 24.9999C40.1484 25.9112 39.4097 26.6499 38.4984 26.6499C38.029 26.6499 37.6484 27.0305 37.6484 27.4999C37.6484 27.9693 38.029 28.3499 38.4984 28.3499C40.3486 28.3499 41.8484 26.8501 41.8484 24.9999C41.8484 23.1497 40.3486 21.6499 38.4984 21.6499Z" fill="#1E2253"/>
</g>
<defs>
<filter id="filter0_d_49_14258" x="0.5" y="0.5" width="64" height="64" filterUnits="userSpaceOnUse" color-interpolation-filters="sRGB">
<feFlood flood-opacity="0" result="BackgroundImageFix"/>
<feColorMatrix in="SourceAlpha" type="matrix" values="0 0 0 0 0 0 0 0 0 0 0 0 0 0 0 0 0 0 127 0" result="hardAlpha"/>
<feOffset dy="2"/>
<feGaussianBlur stdDeviation="5"/>
<feComposite in2="hardAlpha" operator="out"/>
<feColorMatrix type="matrix" values="0 0 0 0 0.486275 0 0 0 0 0.552941 0 0 0 0 0.709804 0 0 0 0.12 0"/>
<feBlend mode="normal" in2="BackgroundImageFix" result="effect1_dropShadow_49_14258"/>
<feBlend mode="normal" in="SourceGraphic" in2="effect1_dropShadow_49_14258" result="shape"/>
</filter>
</defs>
</svg>
